<svg xmlns="http://www.w3.org/2000/svg" viewBox="0 0 63 64"><defs><style>.cls-1{fill:#22b573;}.cls-2{fill:#616e7d;}.cls-3{fill:#fff;}.cls-4{fill:#aad4c8;}</style></defs><g id="Object"><path class="cls-1" d="M13.13,46.67,2,38.63,26,26.15,29.9,1.9,41,9.94,37.87,23.36l11.79-7.14,11.09,8L38.92,35.53,34.5,62.17l-11.09-8L26.9,38.5Z"/><polygon class="cls-2" points="15.67 33.51 14.95 33.53 14.95 33.53 15.67 33.51"/><path class="cls-3" d="M18.81,45.24a17.6,17.6,0,0,1-5.29-11.17l-4.39.49H9c-.34,0-.79,0-1.24.08l-.28,0A24.43,24.43,0,0,0,48.27,50.3L44,46a18.38,18.38,0,0,1-25.16-.76Z"/><path class="cls-3" d="M31.61,8a24.27,24.27,0,0,0-17.28,7.16,22.35,22.35,0,0,0-1.54,1.69l4.33,4.33a16.46,16.46,0,0,1,1.5-1.73A18.36,18.36,0,0,1,50,32l6-1A24.43,24.43,0,0,0,31.61,8Z"/><polygon class="cls-4" points="8.33 12.39 5.8 29.49 22.86 26.92 17.12 21.18 12.79 16.85 8.33 12.39"/><polygon class="cls-4" points="43.97 46 48.27 50.3 52.67 54.7 55.25 37.65 38.15 40.17 43.97 46"/></g></svg>